<svg xmlns="http://www.w3.org/2000/svg" width="60" height="60" viewBox="0 0 60 60">
  <defs>
    <style>
      .cls-1 {
        fill-rule: evenodd;
      }
    </style>
  </defs>
  <path id="Forma_1" data-name="Forma 1" class="cls-1" d="M848.1,589.846c-0.5.124-1,.234-1.5,0.327a2.437,2.437,0,0,0-.95,4.377,2.388,2.388,0,0,0,1.828.4c0.6-.111,1.2-0.242,1.787-0.39A2.429,2.429,0,0,0,848.1,589.846Zm17.834-32.576a2.423,2.423,0,0,0,.9,1.222,2.4,2.4,0,0,0,2.149.321,2.433,2.433,0,0,0,1.531-3.07c-0.19-.581-0.4-1.164-0.627-1.731a2.4,2.4,0,0,0-3.135-1.354,2.436,2.436,0,0,0-1.343,3.159C865.591,556.293,865.769,556.783,865.929,557.27Zm-10,29.106c-0.425.283-.864,0.557-1.306,0.813a2.441,2.441,0,0,0-.186,4.092,2.4,2.4,0,0,0,2.6.118c0.526-.3,1.048-0.63,1.555-0.968a2.441,2.441,0,0,0,.682-3.367A2.4,2.4,0,0,0,855.931,586.376Zm16.076-22.318a2.411,2.411,0,1,0-4.819.191c0.02,0.513.025,1.033,0.013,1.545a2.432,2.432,0,0,0,1.024,2.042,2.407,2.407,0,0,0,3.8-1.934C872.036,565.29,872.031,564.67,872.007,564.058Zm-6.472,15.924a2.4,2.4,0,0,0-3.376.486c-0.307.411-.629,0.817-0.959,1.209a2.443,2.443,0,0,0,.273,3.425c0.057,0.049.116,0.1,0.176,0.138a2.4,2.4,0,0,0,3.223-.412c0.394-.467.779-0.952,1.145-1.443A2.444,2.444,0,0,0,865.535,579.982Zm3.545-8.785a2.407,2.407,0,0,0-3.022,1.592c-0.153.489-.322,0.981-0.5,1.463a2.439,2.439,0,0,0,.863,2.85,2.338,2.338,0,0,0,.532.285,2.4,2.4,0,0,0,3.112-1.4c0.216-.572.417-1.157,0.6-1.739A2.435,2.435,0,0,0,869.08,571.2Zm-31.506,19a24.742,24.742,0,0,1-6.186-1.981c-0.023-.012-0.044-0.026-0.068-0.038-0.463-.219-0.924-0.453-1.371-0.7l-0.007,0a25.427,25.427,0,0,1-8.479-36.849,25.147,25.147,0,0,1,6.185-6.2l0.086-.061a25.045,25.045,0,0,1,28.252-.228l-1.884,2.743c-0.524.764-.2,1.32,0.716,1.237l8.184-.739a1.357,1.357,0,0,0,1.22-1.777l-2.2-7.98c-0.246-.894-0.876-1-1.4-0.238l-1.888,2.75a29.6,29.6,0,0,0-21.824-4.676q-1.158.2-2.283,0.491l-0.016,0-0.086.024a29.728,29.728,0,0,0-16.49,11.137c-0.034.042-.07,0.082-0.1,0.127-0.137.186-.272,0.376-0.4,0.566-0.218.311-.432,0.631-0.637,0.95-0.026.038-.045,0.077-0.068,0.116a30.138,30.138,0,0,0-4.752,17.673c0,0.02,0,.041,0,0.062,0.027,0.61.075,1.228,0.14,1.836,0,0.04.013,0.077,0.019,0.116q0.1,0.918.258,1.838a30.069,30.069,0,0,0,8.392,16.265l0.031,0.032a0.109,0.109,0,0,0,.011.01,30.418,30.418,0,0,0,3.842,3.236,29.6,29.6,0,0,0,11.958,5.043A2.43,2.43,0,0,0,837.574,590.2Zm2.982-44.6a1.959,1.959,0,0,0-1.952,1.967v19.59l17.778,9.262a1.944,1.944,0,0,0,2.629-.844,1.973,1.973,0,0,0-.837-2.649l-15.669-8.164V547.561A1.958,1.958,0,0,0,840.556,545.594Z" transform="translate(-812.031 -535)"/>
</svg>
