<svg xmlns="http://www.w3.org/2000/svg" width="60" height="53.5" viewBox="0 0 60 53.5">
  <defs>
    <style>
      .cls-1 {
        fill-rule: evenodd;
      }
    </style>
  </defs>
  <path id="Forma_1" data-name="Forma 1" class="cls-1" d="M1062.08,570.117h4.89V589.67a2.1,2.1,0,0,0,2.09,2.1h14.31a2.107,2.107,0,0,0,2.1-2.1V575.355h8.72V589.67a2.1,2.1,0,0,0,2.1,2.1h13.61a2.1,2.1,0,0,0,2.09-2.1V570.117h5.93a2.088,2.088,0,0,0,1.47-3.561l-27.29-27.688a2.083,2.083,0,0,0-2.93-.035l-28.52,27.688a2.1,2.1,0,0,0-.49,2.305A2.055,2.055,0,0,0,1062.08,570.117Zm28.48-26.814,22.34,22.625h-3a2.106,2.106,0,0,0-2.1,2.1v19.552h-9.42V573.26a2.1,2.1,0,0,0-2.09-2.1h-12.92a2.1,2.1,0,0,0-2.09,2.1v14.315h-10.12V568.023a2.1,2.1,0,0,0-2.1-2.1h-1.81Z" transform="translate(-1060 -538.25)"/>
</svg>
