<svg xmlns="http://www.w3.org/2000/svg" width="58.37" height="60" viewBox="0 0 58.37 60">
  <defs>
    <style>
      .cls-1 {
        fill-rule: evenodd;
      }
    </style>
  </defs>
  <path class="cls-1" d="M1330.6,575.8a7.489,7.489,0,0,0,1.75-4.982,7.706,7.706,0,0,0-1.63-4.317,6.709,6.709,0,0,0-1.6-7.718c-2-1.82-5.39-2.635-10.08-2.409a39.438,39.438,0,0,0-6.18.79h-0.01c-0.63.113-1.3,0.251-1.97,0.4-0.05-.8.08-2.8,1.57-7.291,1.75-5.346,1.65-9.437-.33-12.173a7.988,7.988,0,0,0-6.39-3.1,3.176,3.176,0,0,0-2.43,1.105c-1.39,1.619-1.23,4.605-1.05,5.986-1.66,4.442-6.3,15.335-10.23,18.359a1.53,1.53,0,0,0-.21.176,13.658,13.658,0,0,0-2.46,3.689,5.175,5.175,0,0,0-2.48-.627h-7.66a5.23,5.23,0,0,0-5.23,5.22V589.3a5.229,5.229,0,0,0,5.23,5.221h7.66a5.208,5.208,0,0,0,3.01-.954l2.95,0.352a126.687,126.687,0,0,0,16.74.916c1.49,0.113,2.9.175,4.21,0.175a28.262,28.262,0,0,0,5.84-.527c3.84-.815,6.46-2.447,7.79-4.844a7.688,7.688,0,0,0,.86-4.806,7.991,7.991,0,0,0,2.85-6.513A8.408,8.408,0,0,0,1330.6,575.8Zm-51.39,15.335a1.839,1.839,0,0,1-1.84-1.833V568.9a1.837,1.837,0,0,1,1.84-1.833h7.66a1.837,1.837,0,0,1,1.83,1.833v20.392a1.835,1.835,0,0,1-1.83,1.832h-7.66v0.013Zm48.18-16.8a1.686,1.686,0,0,0-.23,2.046,5.144,5.144,0,0,1,.58,2.1,5.01,5.01,0,0,1-2.36,4.342,1.711,1.711,0,0,0-.58,1.932,4.427,4.427,0,0,1-.34,3.238c-0.84,1.506-2.71,2.585-5.55,3.187a33.015,33.015,0,0,1-9.15.276h-0.18a123.876,123.876,0,0,1-16.32-.891h-0.01l-1.27-.15a5.7,5.7,0,0,0,.11-1.105V568.9a5.336,5.336,0,0,0-.24-1.557,10.585,10.585,0,0,1,2.34-4.3c5.64-4.467,11.15-19.539,11.39-20.191a1.6,1.6,0,0,0,.07-0.841,7.746,7.746,0,0,1,.17-3.639,4.507,4.507,0,0,1,3.54,1.694c1.28,1.769,1.23,4.931-.15,9.123-2.11,6.387-2.29,9.751-.62,11.231a2.739,2.739,0,0,0,2.74.49c0.76-.176,1.49-0.327,2.18-0.44,0.05-.012.12-0.025,0.17-0.037,3.85-.841,10.76-1.355,13.16.828,2.03,1.858.59,4.317,0.42,4.581a1.691,1.691,0,0,0,.3,2.183,4.746,4.746,0,0,1,1.4,2.924A4.668,4.668,0,0,1,1327.39,574.329Z" transform="translate(-1273.97 -535)"/>
</svg>
