<svg xmlns="http://www.w3.org/2000/svg" width="60" height="55.125" viewBox="0 0 60 55.125">
  <defs>
    <style>
      .cls-1 {
        fill-rule: evenodd;
      }
    </style>
  </defs>
  <path class="cls-1" d="M643.643,557.953h-0.874a24.074,24.074,0,0,0-7.136-9.608,6.192,6.192,0,0,1,1.058-5.147,3.131,3.131,0,0,0,.1-3.286,3.331,3.331,0,0,0-2.891-1.668c-0.135,0-.283.012-0.418,0.024a13.472,13.472,0,0,0-8.859,4.354,25.391,25.391,0,0,0-4.934-.815,34.138,34.138,0,0,0-3.507-.192,30.478,30.478,0,0,0-19.8,7,22.469,22.469,0,0,0-8.317,17.178,20.84,20.84,0,0,0,.6,5,0.816,0.816,0,0,0,.025.1l0.012,0.06a22.608,22.608,0,0,0,1.845,4.823,25.415,25.415,0,0,0,4.737,6.969,10.771,10.771,0,0,1,2.978,6.934v0.707a1.791,1.791,0,0,0,.037.372,3.151,3.151,0,0,0,3.125,2.627h9.166a3.122,3.122,0,0,0,3.163-3.083V589.9a33.122,33.122,0,0,0,3.937.048v0.36a3.122,3.122,0,0,0,3.162,3.083h9.166a3.122,3.122,0,0,0,3.162-3.083v-2.183a7.141,7.141,0,0,1,2.535-4.954c0.111-.1.234-0.192,0.345-0.288l0.024-.024a0.276,0.276,0,0,0,.086-0.084,23.866,23.866,0,0,0,6.718-9.5h0.726a4.393,4.393,0,0,0,4.442-4.33v-6.682A4.344,4.344,0,0,0,643.643,557.953ZM633.9,541.471h0l-0.012-.012v0.012h0l-0.209-1.607Zm10.864,27.482a1.11,1.11,0,0,1-1.119,1.092h-1.92a1.66,1.66,0,0,0-1.587,1.139,20.459,20.459,0,0,1-6.2,9.225l-0.025.024-0.012.012-0.332.288-0.037.036a10.315,10.315,0,0,0-3.642,7.3v2.087h-8.859v-1.955a1.564,1.564,0,0,0-.554-1.2,1.665,1.665,0,0,0-1.279-.408,28.351,28.351,0,0,1-3.015.156,29.383,29.383,0,0,1-3.851-.252,1.719,1.719,0,0,0-1.316.384,1.627,1.627,0,0,0-.566,1.223v2.051H601.6v-0.587a13.992,13.992,0,0,0-3.912-9.081,21.886,21.886,0,0,1-4.122-6.106,0.129,0.129,0,0,1-.025-0.06,18.611,18.611,0,0,1-1.6-4.15c0-.012-0.013-0.024-0.013-0.036v-0.024a18.292,18.292,0,0,1-.529-4.307c0-11.552,11.123-20.944,24.793-20.944a31.062,31.062,0,0,1,3.174.168,0.16,0.16,0,0,1,.074.012,16.588,16.588,0,0,1,4.958.971,1.694,1.694,0,0,0,2.166-.515c1.07-1.548,3.211-3.5,7.321-4a9.369,9.369,0,0,0-1.427,7.785,1.632,1.632,0,0,0,.615,1.212,20.751,20.751,0,0,1,6.964,9.6,1.662,1.662,0,0,0,1.575,1.116h2.042a1.11,1.11,0,0,1,1.12,1.091v6.646h-0.013Z" transform="translate(-588.063 -538.25)"/>
</svg>
